<svg width="616" height="384" viewBox="0 0 616 384" fill="none" xmlns="http://www.w3.org/2000/svg">
<path d="M599.2 0H16.8C7.52162 0 0 6.25173 0 13.9636V370.036C0 377.748 7.52162 384 16.8 384H599.2C608.478 384 616 377.748 616 370.036V13.9636C616 6.25173 608.478 0 599.2 0Z" fill="#F3F5F8"/>
<path d="M0 11.6364C0 5.20977 7.52161 0 16.8 0H599.2C608.479 0 616 5.20977 616 11.6364V46.5455H0V11.6364Z" fill="#E0E7EC"/>
<path d="M536.966 124H79.0345C72.9403 124 68 128.904 68 134.952V343.048C68 349.096 72.9403 354 79.0345 354H536.966C543.06 354 548 349.096 548 343.048V134.952C548 128.904 543.06 124 536.966 124Z" fill="#EAFFF6"/>
<circle cx="40" cy="23" r="7" fill="#F54B23"/>
<circle cx="68" cy="23" r="7" fill="#F7C02B"/>
<circle cx="96.0001" cy="23.2485" r="7" fill="#1EC103"/>
</svg>
